<?xml version="1.0" encoding="UTF-8"?>
<!DOCTYPE svg PUBLIC "-//W3C//DTD SVG 1.1//EN" "http://www.w3.org/Graphics/SVG/1.1/DTD/svg11.dtd">
<!-- Creator: CorelDRAW X8 -->
<svg xmlns="http://www.w3.org/2000/svg" xml:space="preserve" width="36px" height="36px" version="1.1" style="shape-rendering:geometricPrecision; text-rendering:geometricPrecision; image-rendering:optimizeQuality; fill-rule:evenodd; clip-rule:evenodd"
viewBox="0 0 36 36"
 xmlns:xlink="http://www.w3.org/1999/xlink">
 <defs>
  <style type="text/css">
   <![CDATA[
    .fil0 {fill:none}
    .fil1 {fill:#999999}
    .fil2 {fill:#999999;fill-rule:nonzero}
   ]]>
  </style>
 </defs>
 <g id="Capa_x0020_1">
  <metadata id="CorelCorpID_0Corel-Layer"/>
  <g id="_3216202455824">
   <rect class="fil0" width="36" height="35.9994"/>
   <g>
    <path class="fil1" d="M9 6c-7,5 -5,20 -4,27 1,-4 1,-8 1,-8 0,0 1,2 2,2 0,-1 1,-6 1,-7 0,0 6,6 6,6 0,-2 -1,-5 -1,-5 1,0 7,3 8,4 0,0 0,0 0,0 1,-1 -1,-4 -1,-5 0,-1 6,5 7,5 0,-1 -1,-3 0,-3 0,1 2,4 2,6 0,1 0,3 0,5 1,0 4,-16 0,-18 -1,-1 -3,-8 -4,-8 0,0 -1,2 -1,2 0,0 -1,-6 -5,-7l0 2c0,0 -2,-3 -2,-4 -3,0 -7,13 -9,6z"/>
    <g>
     <path class="fil1" d="M12 31l-1 1 0 -1c0,0 0,0 0,0 -1,0 -1,1 -1,1 0,1 0,2 1,2 1,0 1,-1 1,-2 0,0 0,0 0,-1z"/>
     <path class="fil1" d="M25 31l-1 1 1 -1c0,0 -1,0 -1,0 -1,0 -1,1 -1,1 0,1 0,2 1,2 1,0 2,-1 2,-2 0,0 0,0 -1,-1z"/>
     <path class="fil2" d="M23 27l0 1c0,0 0,0 0,0 0,0 0,0 -1,0 0,0 0,0 0,0 0,1 -1,1 -1,1l0 1c0,1 0,1 0,1 0,0 0,1 -1,1 1,0 1,0 1,0 0,0 0,0 0,1l0 1c0,0 1,1 1,1 0,0 0,0 0,0 0,0 1,0 1,0 0,0 0,0 0,0l0 1c0,0 0,0 -1,0 0,0 0,0 0,0 0,0 -1,0 -1,0 0,0 0,0 -1,0 0,0 0,0 0,-1 0,0 0,0 0,-1l0 -1c0,0 0,0 0,-1 -1,0 -1,0 -2,0 0,0 0,0 0,0 0,0 0,0 0,0l0 -1c0,0 0,0 0,0 0,0 0,0 0,0 1,0 1,0 2,0 0,0 0,-1 0,-1l0 -1c0,-1 0,-1 0,-1 0,0 0,-1 0,-1 1,0 1,0 1,0 0,0 1,0 1,0 0,0 0,0 0,0 1,0 1,0 1,0z"/>
     <path class="fil2" d="M13 27c0,0 0,0 0,0 1,0 1,0 1,0 0,0 0,0 1,0 0,0 0,0 0,0 1,0 1,1 1,1 0,0 0,0 0,1l0 1c0,0 0,1 0,1 1,0 1,0 1,0 0,0 0,0 1,0 0,0 0,0 0,0l0 1c0,0 0,0 0,0 -1,0 -1,0 -1,0 0,0 0,0 -1,0 0,1 0,1 0,1l0 1c0,1 0,1 0,1 0,1 0,1 -1,1 0,0 0,0 0,0 0,0 -1,0 -1,0 0,0 0,0 -1,0 0,0 0,0 0,0l0 -1c0,0 0,0 0,0 0,0 0,0 0,0 1,0 1,0 1,0 0,0 0,-1 0,-1l0 -1c0,-1 1,-1 1,-1 0,0 0,0 1,0 -1,0 -1,-1 -1,-1 0,0 -1,0 -1,-1l0 -1c0,0 0,0 0,-1 0,0 0,0 -1,0 0,0 0,0 0,0 0,0 0,0 0,0l0 -1z"/>
     <path class="fil2" d="M12 27l0 1c0,0 -3,0 -3,0 -1,0 -1,0 -1,0 0,0 0,0 0,0 0,1 0,1 0,1 0,2 0,3 0,5 0,0 0,1 0,1 0,0 0,0 0,0 0,0 0,0 1,0 0,0 3,0 3,0l0 1c0,0 -3,0 -4,0 0,0 0,0 0,0 0,0 0,0 -1,0 0,0 0,0 0,0 -1,0 -1,0 -1,-1 0,0 0,0 0,-1 0,-1 0,-3 0,-5 0,-1 0,-1 0,-1 0,0 0,-1 1,-1 0,0 0,0 0,0 1,0 1,0 1,0 0,0 0,0 0,0 1,0 4,0 4,0z"/>
     <path class="fil2" d="M24 27l0 1c0,0 3,0 3,0 0,0 0,0 0,0 1,0 1,0 1,0 0,1 0,1 0,1 0,2 0,3 0,5 0,0 0,1 0,1 0,0 0,0 -1,0 0,0 0,0 0,0 0,0 -3,0 -3,0l0 1c0,0 3,0 3,0 1,0 1,0 1,0 0,0 0,0 1,0 0,0 0,0 0,0 0,0 1,0 1,-1 0,0 0,0 0,-1 0,-1 0,-3 0,-5 0,-1 0,-1 0,-1 0,0 -1,-1 -1,-1 0,0 0,0 0,0 -1,0 -1,0 -1,0 0,0 -1,0 -1,0 0,0 -3,0 -3,0z"/>
    </g>
   </g>
  </g>
 </g>
</svg>
